STARTFONT 2.1
FONT -DIGITAL-VT220-medium-I-Normal-136col-20-200-75-75-c-90-iso10646-1
SIZE 20 75 75
FONTBOUNDINGBOX 15 20 -3 -4
STARTPROPERTIES 21
FOUNDRY "DIGITAL"
FAMILY_NAME "vt220"
WEIGHT_NAME "medium"
RELATIVE_SETWIDTH 50
SLANT "I"
SETWIDTH_NAME "Normal"
ADD_STYLE_NAME "136col"
PIXEL_SIZE 20
POINT_SIZE 200
RESOLUTION_X 75
RESOLUTION_Y 75
SPACING "c"
CHARSET_REGISTRY "ISO10646"
CHARSET_ENCODING "1"
CAP_HEIGHT 14
X_HEIGHT 10
WEIGHT 10
QUAD_WIDTH 9
FONT_ASCENT 16
FONT_DESCENT 4
AVERAGE_WIDTH 90
ENDPROPERTIES
CHARS 237
STARTCHAR U+00FD
ENCODING 253
SWIDTH 1000 0
DWIDTH 9 0
BBX 15 20 -3 -4
BITMAP
0000
0000
0000
0000
0000
0000
0000
0000
0000
0000
0000
0000
0000
0000
0000
0000
0000
0000
0000
0000
ENDCHAR
STARTCHAR U+25A1
ENCODING 9633
SWIDTH 1000 0
DWIDTH 9 0
BBX 15 20 -3 -4
BITMAP
0000
0000
03FC
07F8
0618
0618
0C30
0C30
0C30
1860
1860
1860
30C0
30C0
3FC0
7F80
0000
0000
0000
0000
ENDCHAR
STARTCHAR U+00FE
ENCODING 254
SWIDTH 1000 0
DWIDTH 9 0
BBX 15 20 -3 -4
BITMAP
0000
0000
0300
0600
0600
0600
0FE0
0FE0
0E30
1C60
1C60
1C60
3F80
3F80
3000
6000
6000
6000
C000
C000
ENDCHAR
STARTCHAR U+00FF
ENCODING 255
SWIDTH 1000 0
DWIDTH 9 0
BBX 15 20 -3 -4
BITMAP
0000
0000
0198
0330
0000
0000
0C60
0C60
0C60
18C0
19C0
19C0
1F80
1F80
0180
0300
6300
6300
7C00
7C00
ENDCHAR
STARTCHAR U+00FC
ENCODING 252
SWIDTH 1000 0
DWIDTH 9 0
BBX 15 20 -3 -4
BITMAP
0000
0000
0198
0330
0000
0000
0C60
0C60
0C60
18C0
18C0
18C0
3180
3180
1FC0
3F80
0000
0000
0000
0000
ENDCHAR
STARTCHAR U+00FB
ENCODING 251
SWIDTH 1000 0
DWIDTH 9 0
BBX 15 20 -3 -4
BITMAP
00F0
00F0
0198
0330
0000
0000
0C60
0C60
0C60
18C0
18C0
18C0
3180
3180
1FC0
3F80
0000
0000
0000
0000
ENDCHAR
STARTCHAR U+00FA
ENCODING 250
SWIDTH 1000 0
DWIDTH 9 0
BBX 15 20 -3 -4
BITMAP
0000
0000
0070
00E0
0380
0380
0C60
0C60
0C60
18C0
18C0
18C0
3180
3180
1FC0
3F80
0000
0000
0000
0000
ENDCHAR
STARTCHAR U+00F9
ENCODING 249
SWIDTH 1000 0
DWIDTH 9 0
BBX 15 20 -3 -4
BITMAP
0000
0000
01C0
0380
00E0
00E0
0C60
0C60
0C60
18C0
18C0
18C0
3180
3180
1FC0
3F80
0000
0000
0000
0000
ENDCHAR
STARTCHAR U+00F8
ENCODING 248
SWIDTH 1000 0
DWIDTH 9 0
BBX 15 20 -3 -4
BITMAP
0000
0000
0000
0000
0018
0018
07E0
07E0
0CF0
19E0
1B60
1B60
3CC0
3CC0
1F80
3F00
6000
6000
0000
0000
ENDCHAR
STARTCHAR U+0153
ENCODING 339
SWIDTH 1000 0
DWIDTH 9 0
BBX 15 20 -3 -4
BITMAP
0000
0000
0000
0000
0000
0000
07E0
07E0
0DB0
1B60
1BE0
1BE0
3600
3600
1FC0
3F80
0000
0000
0000
0000
ENDCHAR
STARTCHAR U+00F6
ENCODING 246
SWIDTH 1000 0
DWIDTH 9 0
BBX 15 20 -3 -4
BITMAP
0000
0000
0198
0330
0000
0000
07E0
07E0
0C30
1860
1860
1860
30C0
30C0
1F80
3F00
0000
0000
0000
0000
ENDCHAR
STARTCHAR U+00F5
ENCODING 245
SWIDTH 1000 0
DWIDTH 9 0
BBX 15 20 -3 -4
BITMAP
01D8
01D8
0370
06E0
0000
0000
07E0
07E0
0C30
1860
1860
1860
30C0
30C0
1F80
3F00
0000
0000
0000
0000
ENDCHAR
STARTCHAR U+00F4
ENCODING 244
SWIDTH 1000 0
DWIDTH 9 0
BBX 15 20 -3 -4
BITMAP
00F0
00F0
0198
0330
0000
0000
07E0
07E0
0C30
1860
1860
1860
30C0
30C0
1F80
3F00
0000
0000
0000
0000
ENDCHAR
STARTCHAR U+00F3
ENCODING 243
SWIDTH 1000 0
DWIDTH 9 0
BBX 15 20 -3 -4
BITMAP
0000
0000
0070
00E0
0380
0380
07E0
07E0
0C30
1860
1860
1860
30C0
30C0
1F80
3F00
0000
0000
0000
0000
ENDCHAR
STARTCHAR U+00F2
ENCODING 242
SWIDTH 1000 0
DWIDTH 9 0
BBX 15 20 -3 -4
BITMAP
0000
0000
00E0
01C0
0070
0070
07E0
07E0
0C30
1860
1860
1860
30C0
30C0
1F80
3F00
0000
0000
0000
0000
ENDCHAR
STARTCHAR U+00F1
ENCODING 241
SWIDTH 1000 0
DWIDTH 9 0
BBX 15 20 -3 -4
BITMAP
01D8
01D8
0370
06E0
0000
0000
0FE0
0FE0
0E30
1C60
1860
1860
30C0
30C0
30C0
6180
0000
0000
0000
0000
ENDCHAR
STARTCHAR U+00F0
ENCODING 240
SWIDTH 1000 0
DWIDTH 9 0
BBX 15 20 -3 -4
BITMAP
006C
006C
0038
0070
00D8
00D8
07F0
07F0
0C70
18E0
1860
1860
3180
3180
1F00
3E00
0000
0000
0000
0000
ENDCHAR
STARTCHAR U+00EF
ENCODING 239
SWIDTH 1000 0
DWIDTH 9 0
BBX 15 20 -3 -4
BITMAP
0000
0000
0198
0330
0000
0000
0380
0380
0180
0300
0300
0300
0600
0600
1F80
3F00
0000
0000
0000
0000
ENDCHAR
STARTCHAR U+00EE
ENCODING 238
SWIDTH 1000 0
DWIDTH 9 0
BBX 15 20 -3 -4
BITMAP
00F0
00F0
0198
0330
0000
0000
0380
0380
0180
0300
0300
0300
0600
0600
1F80
3F00
0000
0000
0000
0000
ENDCHAR
STARTCHAR U+00ED
ENCODING 237
SWIDTH 1000 0
DWIDTH 9 0
BBX 15 20 -3 -4
BITMAP
0000
0000
0070
00E0
0380
0380
0380
0380
0180
0300
0300
0300
0600
0600
1F80
3F00
0000
0000
0000
0000
ENDCHAR
STARTCHAR U+00EC
ENCODING 236
SWIDTH 1000 0
DWIDTH 9 0
BBX 15 20 -3 -4
BITMAP
0000
0000
01C0
0380
00E0
00E0
0380
0380
0180
0300
0300
0300
0600
0600
1F80
3F00
0000
0000
0000
0000
ENDCHAR
STARTCHAR U+00EB
ENCODING 235
SWIDTH 1000 0
DWIDTH 9 0
BBX 15 20 -3 -4
BITMAP
0000
0000
0198
0330
0000
0000
07E0
07E0
0C30
1860
1FE0
1FE0
3000
3000
1F80
3F00
0000
0000
0000
0000
ENDCHAR
STARTCHAR U+00EA
ENCODING 234
SWIDTH 1000 0
DWIDTH 9 0
BBX 15 20 -3 -4
BITMAP
00F0
00F0
0198
0330
0000
0000
07E0
07E0
0C30
1860
1FE0
1FE0
3000
3000
1F80
3F00
0000
0000
0000
0000
ENDCHAR
STARTCHAR U+00E9
ENCODING 233
SWIDTH 1000 0
DWIDTH 9 0
BBX 15 20 -3 -4
BITMAP
0000
0000
0070
00E0
0380
0380
07E0
07E0
0C30
1860
1FE0
1FE0
3000
3000
1F80
3F00
0000
0000
0000
0000
ENDCHAR
STARTCHAR U+00E8
ENCODING 232
SWIDTH 1000 0
DWIDTH 9 0
BBX 15 20 -3 -4
BITMAP
0000
0000
00E0
01C0
0070
0070
07E0
07E0
0C30
1860
1FE0
1FE0
3000
3000
1F80
3F00
0000
0000
0000
0000
ENDCHAR
STARTCHAR U+00E7
ENCODING 231
SWIDTH 1000 0
DWIDTH 9 0
BBX 15 20 -3 -4
BITMAP
0000
0000
0000
0000
0000
0000
07E0
07E0
0C30
1860
1800
1800
30C0
30C0
1F80
3F00
0600
0600
3C00
3C00
ENDCHAR
STARTCHAR U+00E6
ENCODING 230
SWIDTH 1000 0
DWIDTH 9 0
BBX 15 20 -3 -4
BITMAP
0000
0000
0000
0000
0000
0000
07E0
07E0
01B0
0360
0FE0
0FE0
3600
3600
1FC0
3F80
0000
0000
0000
0000
ENDCHAR
STARTCHAR U+00E5
ENCODING 229
SWIDTH 1000 0
DWIDTH 9 0
BBX 15 20 -3 -4
BITMAP
00F0
00F0
0198
0330
01E0
01E0
07E0
07E0
0030
0060
0FE0
0FE0
31C0
31C0
1FC0
3F80
0000
0000
0000
0000
ENDCHAR
STARTCHAR U+00E4
ENCODING 228
SWIDTH 1000 0
DWIDTH 9 0
BBX 15 20 -3 -4
BITMAP
0000
0000
0198
0330
0000
0000
07E0
07E0
0030
0060
0FE0
0FE0
31C0
31C0
1FC0
3F80
0000
0000
0000
0000
ENDCHAR
STARTCHAR U+00E3
ENCODING 227
SWIDTH 1000 0
DWIDTH 9 0
BBX 15 20 -3 -4
BITMAP
00EC
00EC
01B8
0370
0000
0000
07E0
07E0
0030
0060
0FE0
0FE0
31C0
31C0
1FC0
3F80
0000
0000
0000
0000
ENDCHAR
STARTCHAR U+00E2
ENCODING 226
SWIDTH 1000 0
DWIDTH 9 0
BBX 15 20 -3 -4
BITMAP
00F0
00F0
0198
0330
0000
0000
07E0
07E0
0030
0060
0FE0
0FE0
31C0
31C0
1FC0
3F80
0000
0000
0000
0000
ENDCHAR
STARTCHAR U+00E1
ENCODING 225
SWIDTH 1000 0
DWIDTH 9 0
BBX 15 20 -3 -4
BITMAP
0000
0000
0070
00E0
0380
0380
07E0
07E0
0030
0060
0FE0
0FE0
31C0
31C0
1FC0
3F80
0000
0000
0000
0000
ENDCHAR
STARTCHAR U+00E0
ENCODING 224
SWIDTH 1000 0
DWIDTH 9 0
BBX 15 20 -3 -4
BITMAP
0000
0000
00E0
01C0
0070
0070
07E0
07E0
0030
0060
0FE0
0FE0
31C0
31C0
1FC0
3F80
0000
0000
0000
0000
ENDCHAR
STARTCHAR U+00DF
ENCODING 223
SWIDTH 1000 0
DWIDTH 9 0
BBX 15 20 -3 -4
BITMAP
0000
0000
00F0
01E0
0330
0330
0C60
0C60
0FC0
1F80
18C0
18C0
3CC0
3CC0
3780
6F00
6000
6000
0000
0000
ENDCHAR
STARTCHAR U+00DE
ENCODING 222
SWIDTH 1000 0
DWIDTH 9 0
BBX 15 20 -3 -4
BITMAP
0000
0000
0380
0700
03F0
03F0
0630
0630
0630
0C60
0C60
0C60
1F80
1F80
3800
7000
0000
0000
0000
0000
ENDCHAR
STARTCHAR U+0178
ENCODING 376
SWIDTH 1000 0
DWIDTH 9 0
BBX 15 20 -3 -4
BITMAP
0198
0198
0000
0000
0618
0618
0660
0660
03C0
0780
0300
0300
0600
0600
0600
0C00
0000
0000
0000
0000
ENDCHAR
STARTCHAR U+00DC
ENCODING 220
SWIDTH 1000 0
DWIDTH 9 0
BBX 15 20 -3 -4
BITMAP
0198
0198
0000
0000
0618
0618
0C30
0C30
0C30
1860
1860
1860
30C0
30C0
1F80
3F00
0000
0000
0000
0000
ENDCHAR
STARTCHAR U+00DB
ENCODING 219
SWIDTH 1000 0
DWIDTH 9 0
BBX 15 20 -3 -4
BITMAP
0060
0060
00F0
01D0
0618
0618
0C30
0C30
0C30
1860
1860
1860
30C0
30C0
1F80
3F00
0000
0000
0000
0000
ENDCHAR
STARTCHAR U+00DA
ENCODING 218
SWIDTH 1000 0
DWIDTH 9 0
BBX 15 20 -3 -4
BITMAP
0038
0038
0160
01C0
0618
0618
0C30
0C30
0C30
1860
1860
1860
30C0
30C0
1F80
3F00
0000
0000
0000
0000
ENDCHAR
STARTCHAR U+00D9
ENCODING 217
SWIDTH 1000 0
DWIDTH 9 0
BBX 15 20 -3 -4
BITMAP
01C0
01C0
0070
00D0
0618
0618
0C30
0C30
0C30
1860
1860
1860
30C0
30C0
1F80
3F00
0000
0000
0000
0000
ENDCHAR
STARTCHAR U+00D8
ENCODING 216
SWIDTH 1000 0
DWIDTH 9 0
BBX 15 20 -3 -4
BITMAP
000C
000C
01F8
03F0
0638
0638
0CF0
0CF0
0DB0
1B60
1E60
1E60
38C0
38C0
1F80
3F00
6000
6000
0000
0000
ENDCHAR
STARTCHAR U+0152
ENCODING 338
SWIDTH 1000 0
DWIDTH 9 0
BBX 15 20 -3 -4
BITMAP
0000
0000
01FC
03F8
06C0
06C0
0D80
0D80
0DE0
1BC0
1B00
1B00
3600
3600
1FC0
3F80
0000
0000
0000
0000
ENDCHAR
STARTCHAR U+00D6
ENCODING 214
SWIDTH 1000 0
DWIDTH 9 0
BBX 15 20 -3 -4
BITMAP
0198
0198
0000
0000
03F0
03F0
0C30
0C30
0C30
1860
1860
1860
30C0
30C0
1F80
3F00
0000
0000
0000
0000
ENDCHAR
STARTCHAR U+00D5
ENCODING 213
SWIDTH 1000 0
DWIDTH 9 0
BBX 15 20 -3 -4
BITMAP
01D8
01D8
0370
06E0
03F0
03F0
0C30
0C30
0C30
1860
1860
1860
30C0
30C0
1F80
3F00
0000
0000
0000
0000
ENDCHAR
STARTCHAR U+00D4
ENCODING 212
SWIDTH 1000 0
DWIDTH 9 0
BBX 15 20 -3 -4
BITMAP
00F0
00F0
0198
0330
03F0
03F0
0C30
0C30
0C30
1860
1860
1860
30C0
30C0
1F80
3F00
0000
0000
0000
0000
ENDCHAR
STARTCHAR U+00D3
ENCODING 211
SWIDTH 1000 0
DWIDTH 9 0
BBX 15 20 -3 -4
BITMAP
0070
0070
01C0
0380
03F0
03F0
0C30
0C30
0C30
1860
1860
1860
30C0
30C0
1F80
3F00
0000
0000
0000
0000
ENDCHAR
STARTCHAR U+00D2
ENCODING 210
SWIDTH 1000 0
DWIDTH 9 0
BBX 15 20 -3 -4
BITMAP
00E0
00E0
0038
0070
03F0
03F0
0C30
0C30
0C30
1860
1860
1860
30C0
30C0
1F80
3F00
0000
0000
0000
0000
ENDCHAR
STARTCHAR U+00D1
ENCODING 209
SWIDTH 1000 0
DWIDTH 9 0
BBX 15 20 -3 -4
BITMAP
00EC
00EC
01B8
0370
0718
0718
0F30
0F30
0DB0
1B60
19E0
19E0
31C0
31C0
30C0
6180
0000
0000
0000
0000
ENDCHAR
STARTCHAR U+00D0
ENCODING 208
SWIDTH 1000 0
DWIDTH 9 0
BBX 15 20 -3 -4
BITMAP
0000
0000
03F0
07E0
0330
0330
0630
0630
0FB0
1F60
0C60
0C60
1980
1980
3F00
7E00
0000
0000
0000
0000
ENDCHAR
STARTCHAR U+00CF
ENCODING 207
SWIDTH 1000 0
DWIDTH 9 0
BBX 15 20 -3 -4
BITMAP
0198
0198
0000
0000
03F0
03F0
0180
0180
0180
0300
0300
0300
0600
0600
1F80
3F00
0000
0000
0000
0000
ENDCHAR
STARTCHAR U+00CE
ENCODING 206
SWIDTH 1000 0
DWIDTH 9 0
BBX 15 20 -3 -4
BITMAP
00F0
00F0
0198
0330
03F0
03F0
0180
0180
0180
0300
0300
0300
0600
0600
1F80
3F00
0000
0000
0000
0000
ENDCHAR
STARTCHAR U+00CD
ENCODING 205
SWIDTH 1000 0
DWIDTH 9 0
BBX 15 20 -3 -4
BITMAP
0070
0070
01C0
0380
03F0
03F0
0180
0180
0180
0300
0300
0300
0600
0600
1F80
3F00
0000
0000
0000
0000
ENDCHAR
STARTCHAR U+00CC
ENCODING 204
SWIDTH 1000 0
DWIDTH 9 0
BBX 15 20 -3 -4
BITMAP
00E0
00E0
0038
0070
03F0
03F0
0180
0180
0180
0300
0300
0300
0600
0600
1F80
3F00
0000
0000
0000
0000
ENDCHAR
STARTCHAR U+00CB
ENCODING 203
SWIDTH 1000 0
DWIDTH 9 0
BBX 15 20 -3 -4
BITMAP
0198
0198
0000
0000
07F8
07F8
0C00
0C00
0FC0
1F80
1800
1800
3000
3000
3FC0
7F80
0000
0000
0000
0000
ENDCHAR
STARTCHAR U+00CA
ENCODING 202
SWIDTH 1000 0
DWIDTH 9 0
BBX 15 20 -3 -4
BITMAP
00F0
00F0
0198
0330
07F8
07F8
0C00
0C00
0F80
1F00
1800
1800
3000
3000
3FC0
7F80
0000
0000
0000
0000
ENDCHAR
STARTCHAR U+00C9
ENCODING 201
SWIDTH 1000 0
DWIDTH 9 0
BBX 15 20 -3 -4
BITMAP
0038
0038
00E0
01C0
07F8
07F8
0C00
0C00
0FC0
1F80
1800
1800
3000
3000
3FC0
7F80
0000
0000
0000
0000
ENDCHAR
STARTCHAR U+00C8
ENCODING 200
SWIDTH 1000 0
DWIDTH 9 0
BBX 15 20 -3 -4
BITMAP
01C0
01C0
0070
00E0
07F8
07F8
0C00
0C00
0FC0
1F80
1800
1800
3000
3000
3FC0
7F80
0000
0000
0000
0000
ENDCHAR
STARTCHAR U+00C7
ENCODING 199
SWIDTH 1000 0
DWIDTH 9 0
BBX 15 20 -3 -4
BITMAP
0000
0000
00F8
01F0
0318
0318
0C00
0C00
0C00
1800
1800
1800
18C0
18C0
0F80
1F00
0600
0600
3C00
3C00
ENDCHAR
STARTCHAR U+00C6
ENCODING 198
SWIDTH 1000 0
DWIDTH 9 0
BBX 15 20 -3 -4
BITMAP
0000
0000
00FC
01F8
03C0
03C0
0D80
0D80
0DE0
1BC0
1F00
1F00
3600
3600
37C0
6F80
0000
0000
0000
0000
ENDCHAR
STARTCHAR U+00C5
ENCODING 197
SWIDTH 1000 0
DWIDTH 9 0
BBX 15 20 -3 -4
BITMAP
00F0
00F0
0198
0330
01E0
01E0
03C0
03C0
0660
0CC0
1FE0
1FE0
30C0
30C0
30C0
6180
0000
0000
0000
0000
ENDCHAR
STARTCHAR U+00C4
ENCODING 196
SWIDTH 1000 0
DWIDTH 9 0
BBX 15 20 -3 -4
BITMAP
0198
0198
0000
0000
00C0
00C0
03C0
03C0
0660
0CC0
1FE0
1FE0
30C0
30C0
30C0
6180
0000
0000
0000
0000
ENDCHAR
STARTCHAR U+00C3
ENCODING 195
SWIDTH 1000 0
DWIDTH 9 0
BBX 15 20 -3 -4
BITMAP
00EC
00EC
01B8
02F0
00C0
00C0
03C0
03C0
0660
0CC0
1FE0
1FE0
30C0
30C0
30C0
6180
0000
0000
0000
0000
ENDCHAR
STARTCHAR U+00C2
ENCODING 194
SWIDTH 1000 0
DWIDTH 9 0
BBX 15 20 -3 -4
BITMAP
00F0
00F0
01A8
02B0
00C0
00C0
03C0
03C0
0660
0CC0
1FE0
1FE0
30C0
30C0
30C0
6180
0000
0000
0000
0000
ENDCHAR
STARTCHAR U+00C1
ENCODING 193
SWIDTH 1000 0
DWIDTH 9 0
BBX 15 20 -3 -4
BITMAP
0070
0070
01C0
0380
00C0
00C0
03C0
03C0
0660
0CC0
1FE0
1FE0
30C0
30C0
30C0
6180
0000
0000
0000
0000
ENDCHAR
STARTCHAR U+00C0
ENCODING 192
SWIDTH 1000 0
DWIDTH 9 0
BBX 15 20 -3 -4
BITMAP
00E0
00E0
0038
0070
00C0
00C0
03C0
03C0
0660
0CC0
1FE0
1FE0
30C0
30C0
30C0
6180
0000
0000
0000
0000
ENDCHAR
STARTCHAR U+00BF
ENCODING 191
SWIDTH 1000 0
DWIDTH 9 0
BBX 15 20 -3 -4
BITMAP
0000
0000
0060
00C0
0000
0000
0180
0180
0180
0300
0E00
0E00
30C0
30C0
1F80
3F00
0000
0000
0000
0000
ENDCHAR
STARTCHAR U+00BE
ENCODING 190
SWIDTH 1000 0
DWIDTH 9 0
BBX 15 20 -3 -4
BITMAP
03E0
03E0
0060
00A0
03B0
03B0
01C0
01C0
0F80
1E80
06C0
06C0
1B80
1B80
3F80
6F00
1F80
1F80
0600
0600
ENDCHAR
STARTCHAR U+00BD
ENCODING 189
SWIDTH 1000 0
DWIDTH 9 0
BBX 15 20 -3 -4
BITMAP
0000
0000
0180
0300
0730
0730
06C0
06C0
0780
0F00
07C0
07C0
1EC0
1EC0
3380
6300
0600
0600
1F00
1F00
ENDCHAR
STARTCHAR U+00BC
ENCODING 188
SWIDTH 1000 0
DWIDTH 9 0
BBX 15 20 -3 -4
BITMAP
0000
0000
0180
0300
0730
0730
06C0
06C0
0780
0E80
06C0
06C0
1B80
1B80
3F80
6F00
1F80
1F80
0600
0600
ENDCHAR
STARTCHAR U+00BB
ENCODING 187
SWIDTH 1000 0
DWIDTH 9 0
BBX 15 20 -3 -4
BITMAP
0000
0000
0360
06C0
0360
03E0
0360
0360
01B0
02E0
06C0
06C0
1B00
1B00
3E00
6C00
0000
0000
0000
0000
ENDCHAR
STARTCHAR U+00BA
ENCODING 186
SWIDTH 1000 0
DWIDTH 9 0
BBX 15 20 -3 -4
BITMAP
0000
0000
01F8
03F0
0618
0618
0C30
0C30
0C30
1860
0FC0
0FC0
0000
0000
3FC0
7F80
0000
0000
0000
0000
ENDCHAR
STARTCHAR U+00B9
ENCODING 185
SWIDTH 1000 0
DWIDTH 9 0
BBX 15 20 -3 -4
BITMAP
0060
0060
00E0
01C0
00C0
00C0
0180
0180
03C0
0780
0000
0000
0000
0000
0000
0000
0000
0000
0000
0000
ENDCHAR
STARTCHAR U+00B8
ENCODING 184
SWIDTH 1000 0
DWIDTH 9 0
BBX 15 20 -3 -4
BITMAP
0000
0000
0000
0000
0000
0000
0000
0000
0000
0000
0000
0000
0000
0000
0000
0000
0600
0600
3C00
3C00
ENDCHAR
STARTCHAR U+2022
ENCODING 8226
SWIDTH 1000 0
DWIDTH 9 0
BBX 15 20 -3 -4
BITMAP
0000
0000
0000
0000
0000
0000
0380
0380
0380
0700
0000
0000
0000
0000
0000
0000
0000
0000
0000
0000
ENDCHAR
STARTCHAR U+00B6
ENCODING 182
SWIDTH 1000 0
DWIDTH 9 0
BBX 15 20 -3 -4
BITMAP
0000
0000
01FC
03F8
0778
0778
0EF0
0EF0
07F0
0FE0
01E0
01E0
03C0
03C0
03C0
0780
0000
0000
0000
0000
ENDCHAR
STARTCHAR U+00B5
ENCODING 181
SWIDTH 1000 0
DWIDTH 9 0
BBX 15 20 -3 -4
BITMAP
0000
0000
0000
0000
0000
0000
0630
0630
0630
0C60
0C60
0C60
1DC0
1DC0
1FC0
3F80
3000
3000
C000
C000
ENDCHAR
STARTCHAR U+00B4
ENCODING 180
SWIDTH 1000 0
DWIDTH 9 0
BBX 15 20 -3 -4
BITMAP
0000
0000
0038
0070
0060
0060
0180
0180
0000
0000
0000
0000
0000
0000
0000
0000
0000
0000
0000
0000
ENDCHAR
STARTCHAR U+00B3
ENCODING 179
SWIDTH 1000 0
DWIDTH 9 0
BBX 15 20 -3 -4
BITMAP
01F8
01F8
0018
0030
00E0
00E0
0060
0060
07C0
0F80
0000
0000
0000
0000
0000
0000
0000
0000
0000
0000
ENDCHAR
STARTCHAR U+00B2
ENCODING 178
SWIDTH 1000 0
DWIDTH 9 0
BBX 15 20 -3 -4
BITMAP
00F0
00F0
0198
02B0
00E0
00E0
0300
0300
07E0
0FC0
0000
0000
0000
0000
0000
0000
0000
0000
0000
0000
ENDCHAR
STARTCHAR U+00AF
ENCODING 175
SWIDTH 1000 0
DWIDTH 9 0
BBX 15 20 -3 -4
BITMAP
01F8
01F8
0000
0000
0000
0000
0000
0000
0000
0000
0000
0000
0000
0000
0000
0000
0000
0000
0000
0000
ENDCHAR
STARTCHAR U+00AE
ENCODING 174
SWIDTH 1000 0
DWIDTH 9 0
BBX 15 20 -3 -4
BITMAP
0000
0000
00F0
01E0
0330
0330
0FF0
0FF0
0F70
1EE0
1FE0
1FE0
3EC0
3EC0
1F80
3F00
1E00
1E00
0000
0000
ENDCHAR
STARTCHAR U+00D7
ENCODING 215
SWIDTH 1000 0
DWIDTH 9 0
BBX 15 20 -3 -4
BITMAP
0000
0000
0000
0000
0330
0330
03C0
03C0
0180
0300
0780
0780
1980
1980
0000
0000
0000
0000
0000
0000
ENDCHAR
STARTCHAR U+00AC
ENCODING 172
SWIDTH 1000 0
DWIDTH 9 0
BBX 15 20 -3 -4
BITMAP
0000
0000
0000
0000
0000
0000
0000
0000
0000
0000
1FE0
1FE0
00C0
00C0
00C0
0180
0000
0000
0000
0000
ENDCHAR
STARTCHAR U+00AB
ENCODING 171
SWIDTH 1000 0
DWIDTH 9 0
BBX 15 20 -3 -4
BITMAP
0000
0000
006C
00B8
01B0
01B0
06C0
06C0
0F80
1B00
0D80
0F80
0D80
0D80
06C0
0D80
0000
0000
0000
0000
ENDCHAR
STARTCHAR U+00AA
ENCODING 170
SWIDTH 1000 0
DWIDTH 9 0
BBX 15 20 -3 -4
BITMAP
0000
0000
01F8
03F0
0018
0018
07F0
07F0
0C70
18E0
0FE0
0FE0
0000
0000
3FC0
7F80
0000
0000
0000
0000
ENDCHAR
STARTCHAR U+00A9
ENCODING 169
SWIDTH 1000 0
DWIDTH 9 0
BBX 15 20 -3 -4
BITMAP
0000
0000
00F0
01E0
0330
0330
0DF0
0DF0
0F30
1E60
1E60
1E60
37C0
37C0
1980
3300
1E00
1E00
0000
0000
ENDCHAR
STARTCHAR U+00A4
ENCODING 164
SWIDTH 1000 0
DWIDTH 9 0
BBX 15 20 -3 -4
BITMAP
0000
0000
0000
0000
0618
0618
07E0
07E0
0660
0CC0
0FC0
0FC0
30C0
30C0
0000
0000
0000
0000
0000
0000
ENDCHAR
STARTCHAR U+00A7
ENCODING 167
SWIDTH 1000 0
DWIDTH 9 0
BBX 15 20 -3 -4
BITMAP
0000
0000
00F8
01F0
0300
0300
03C0
03C0
0660
0CC0
0780
0780
0180
0180
1F00
3E00
0000
0000
0000
0000
ENDCHAR
STARTCHAR U+00A6
ENCODING 166
SWIDTH 1000 0
DWIDTH 9 0
BBX 15 20 -3 -4
BITMAP
0000
0000
0060
00C0
00C0
00C0
0180
0180
0000
0000
0300
0300
0600
0600
0600
0C00
0000
0000
0000
0000
ENDCHAR
STARTCHAR U+00A5
ENCODING 165
SWIDTH 1000 0
DWIDTH 9 0
BBX 15 20 -3 -4
BITMAP
0000
0000
030C
0618
0330
0330
03C0
03C0
0180
0300
1FE0
1FE0
0600
0600
0600
0C00
0000
0000
0000
0000
ENDCHAR
STARTCHAR U+00A8
ENCODING 168
SWIDTH 1000 0
DWIDTH 9 0
BBX 15 20 -3 -4
BITMAP
0198
0198
0000
0000
0000
0000
0000
0000
0000
0000
0000
0000
0000
0000
0000
0000
0000
0000
0000
0000
ENDCHAR
STARTCHAR U+00A2
ENCODING 162
SWIDTH 1000 0
DWIDTH 9 0
BBX 15 20 -3 -4
BITMAP
0000
0000
0000
0000
00C0
00C0
07E0
07E0
0DB0
1B60
1B00
1B00
36C0
36C0
1F80
3F00
0C00
0C00
0000
0000
ENDCHAR
STARTCHAR U+00A1
ENCODING 161
SWIDTH 1000 0
DWIDTH 9 0
BBX 15 20 -3 -4
BITMAP
0000
0000
0060
00C0
0000
0000
0180
0180
0180
0300
0300
0300
0600
0600
0600
0C00
0000
0000
0000
0000
ENDCHAR
STARTCHAR U+201F
ENCODING 8223
SWIDTH 1000 0
DWIDTH 9 0
BBX 15 20 -3 -4
BITMAP
0000
0000
01F8
03F0
0360
03E0
0360
0360
0000
0000
0000
0000
0000
0000
0000
0000
0000
0000
0000
0000
ENDCHAR
STARTCHAR U+201E
ENCODING 8222
SWIDTH 1000 0
DWIDTH 9 0
BBX 15 20 -3 -4
BITMAP
0000
0000
0000
0000
0000
0000
0000
0000
0000
0000
0000
0000
0000
0000
1B00
3600
3600
3600
0000
0000
ENDCHAR
STARTCHAR U+201D
ENCODING 8221
SWIDTH 1000 0
DWIDTH 9 0
BBX 15 20 -3 -4
BITMAP
0000
0000
01DC
03B8
0198
0198
0660
0660
0000
0000
0000
0000
0000
0000
0000
0000
0000
0000
0000
0000
ENDCHAR
STARTCHAR U+201C
ENCODING 8220
SWIDTH 1000 0
DWIDTH 9 0
BBX 15 20 -3 -4
BITMAP
0000
0000
00CC
0198
0330
0330
0770
0770
0000
0000
0000
0000
0000
0000
0000
0000
0000
0000
0000
0000
ENDCHAR
STARTCHAR U+201B
ENCODING 8219
SWIDTH 1000 0
DWIDTH 9 0
BBX 15 20 -3 -4
BITMAP
0000
0000
0060
00C0
00C0
00C0
0180
0180
0000
0000
0000
0000
0000
0000
0000
0000
0000
0000
0000
0000
ENDCHAR
STARTCHAR U+201A
ENCODING 8218
SWIDTH 1000 0
DWIDTH 9 0
BBX 15 20 -3 -4
BITMAP
0000
0000
0000
0000
0000
0000
0000
0000
0000
0000
0300
0300
0600
0600
0600
0C00
0000
0000
0000
0000
ENDCHAR
STARTCHAR U+2019
ENCODING 8217
SWIDTH 1000 0
DWIDTH 9 0
BBX 15 20 -3 -4
BITMAP
0000
0000
01C0
0380
0180
0180
0600
0600
0000
0000
0000
0000
0000
0000
0000
0000
0000
0000
0000
0000
ENDCHAR
STARTCHAR U+2018
ENCODING 8216
SWIDTH 1000 0
DWIDTH 9 0
BBX 15 20 -3 -4
BITMAP
0000
0000
000C
0018
0030
0030
0070
0070
0000
0000
0000
0000
0000
0000
0000
0000
0000
0000
0000
0000
ENDCHAR
STARTCHAR U+2017
ENCODING 8215
SWIDTH 1000 0
DWIDTH 9 0
BBX 15 20 -3 -4
BITMAP
0000
0000
0000
0000
0000
0000
0000
0000
0000
0000
0000
0000
0000
0000
3FC0
7F80
0000
0000
FF00
FF00
ENDCHAR
STARTCHAR U+2016
ENCODING 8214
SWIDTH 1000 0
DWIDTH 9 0
BBX 15 20 -3 -4
BITMAP
0000
0000
0078
00F0
00F0
00F0
01E0
01E0
01E0
03C0
03C0
03C0
0780
0780
0780
0F00
0000
0000
0000
0000
ENDCHAR
STARTCHAR U+2015
ENCODING 8213
SWIDTH 1000 0
DWIDTH 9 0
BBX 15 20 -3 -4
BITMAP
0000
0000
0000
0000
0000
0000
0000
0000
0FF8
1FF0
0000
0000
0000
0000
0000
0000
0000
0000
0000
0000
ENDCHAR
STARTCHAR U+2014
ENCODING 8212
SWIDTH 1000 0
DWIDTH 9 0
BBX 15 20 -3 -4
BITMAP
0000
0000
0000
0000
0000
0000
0000
0000
0FF0
1FE0
0000
0000
0000
0000
0000
0000
0000
0000
0000
0000
ENDCHAR
STARTCHAR U+2013
ENCODING 8211
SWIDTH 1000 0
DWIDTH 9 0
BBX 15 20 -3 -4
BITMAP
0000
0000
0000
0000
0000
0000
0000
0000
03E0
07C0
0000
0000
0000
0000
0000
0000
0000
0000
0000
0000
ENDCHAR
STARTCHAR U+2012
ENCODING 8210
SWIDTH 1000 0
DWIDTH 9 0
BBX 15 20 -3 -4
BITMAP
0000
0000
0000
0000
0000
0000
0000
0000
07E0
0FC0
0000
0000
0000
0000
0000
0000
0000
0000
0000
0000
ENDCHAR
STARTCHAR U+2011
ENCODING 8209
SWIDTH 1000 0
DWIDTH 9 0
BBX 15 20 -3 -4
BITMAP
0000
0000
0000
0000
0000
0000
0000
0000
03C0
0780
0000
0000
0000
0000
0000
0000
0000
0000
0000
0000
ENDCHAR
STARTCHAR U+2010
ENCODING 8208
SWIDTH 1000 0
DWIDTH 9 0
BBX 15 20 -3 -4
BITMAP
0000
0000
0000
0000
0000
0000
0000
0000
03C0
0780
0000
0000
0000
0000
0000
0000
0000
0000
0000
0000
ENDCHAR
STARTCHAR U+007F
ENCODING 127
SWIDTH 1000 0
DWIDTH 9 0
BBX 15 20 -3 -4
BITMAP
0000
0000
03C0
0780
06C0
06C0
0D80
0D80
0D80
1B00
1F80
1F80
0C00
0C00
0C00
1800
1800
1800
3000
3000
ENDCHAR
STARTCHAR U+007E
ENCODING 126
SWIDTH 1000 0
DWIDTH 9 0
BBX 15 20 -3 -4
BITMAP
0000
0000
01CC
0398
06D8
06D8
0CE0
0CE0
0000
0000
0000
0000
0000
0000
0000
0000
0000
0000
0000
0000
ENDCHAR
STARTCHAR U+007D
ENCODING 125
SWIDTH 1000 0
DWIDTH 9 0
BBX 15 20 -3 -4
BITMAP
0000
0000
03C0
0780
00C0
00C0
0300
0300
01C0
0380
0600
0600
0600
0600
3C00
7800
0000
0000
0000
0000
ENDCHAR
STARTCHAR U+007C
ENCODING 124
SWIDTH 1000 0
DWIDTH 9 0
BBX 15 20 -3 -4
BITMAP
0000
0000
0060
00C0
00C0
00C0
0180
0180
0180
0300
0300
0300
0600
0600
0600
0C00
0000
0000
0000
0000
ENDCHAR
STARTCHAR U+007B
ENCODING 123
SWIDTH 1000 0
DWIDTH 9 0
BBX 15 20 -3 -4
BITMAP
0000
0000
003C
0078
00C0
00C0
00C0
00C0
0380
0700
0180
0180
0600
0600
03C0
0780
0000
0000
0000
0000
ENDCHAR
STARTCHAR U+007A
ENCODING 122
SWIDTH 1000 0
DWIDTH 9 0
BBX 15 20 -3 -4
BITMAP
0000
0000
0000
0000
0000
0000
0FF0
0FF0
0060
00C0
0380
0380
0C00
0C00
3FC0
7F80
0000
0000
0000
0000
ENDCHAR
STARTCHAR U+0079
ENCODING 121
SWIDTH 1000 0
DWIDTH 9 0
BBX 15 20 -3 -4
BITMAP
0000
0000
0000
0000
0000
0000
0C60
0C60
0C60
18C0
19C0
19C0
1F80
1F80
0180
0300
6300
6300
7C00
7C00
ENDCHAR
STARTCHAR U+0078
ENCODING 120
SWIDTH 1000 0
DWIDTH 9 0
BBX 15 20 -3 -4
BITMAP
0000
0000
0000
0000
0000
0000
0C60
0C60
06C0
0D80
0700
0700
1B00
1B00
3180
6300
0000
0000
0000
0000
ENDCHAR
STARTCHAR U+0077
ENCODING 119
SWIDTH 1000 0
DWIDTH 9 0
BBX 15 20 -3 -4
BITMAP
0000
0000
0000
0000
0000
0000
0C30
0C30
0C30
1860
1B60
1B60
3FC0
3FC0
1980
3300
0000
0000
0000
0000
ENDCHAR
STARTCHAR U+0076
ENCODING 118
SWIDTH 1000 0
DWIDTH 9 0
BBX 15 20 -3 -4
BITMAP
0000
0000
0000
0000
0000
0000
0C30
0C30
0C30
1860
0CC0
0CC0
0F00
0F00
0600
0C00
0000
0000
0000
0000
ENDCHAR
STARTCHAR U+0075
ENCODING 117
SWIDTH 1000 0
DWIDTH 9 0
BBX 15 20 -3 -4
BITMAP
0000
0000
0000
0000
0000
0000
0C60
0C60
0C60
18C0
18C0
18C0
3180
3180
1FC0
3F80
0000
0000
0000
0000
ENDCHAR
STARTCHAR U+0074
ENCODING 116
SWIDTH 1000 0
DWIDTH 9 0
BBX 15 20 -3 -4
BITMAP
0000
0000
00C0
0180
0180
0180
0FC0
0FC0
0300
0600
0600
0600
0D80
0D80
0700
0E00
0000
0000
0000
0000
ENDCHAR
STARTCHAR U+0073
ENCODING 115
SWIDTH 1000 0
DWIDTH 9 0
BBX 15 20 -3 -4
BITMAP
0000
0000
0000
0000
0000
0000
07E0
07E0
0C00
1800
0FC0
0FC0
00C0
00C0
3F80
7F00
0000
0000
0000
0000
ENDCHAR
STARTCHAR U+0072
ENCODING 114
SWIDTH 1000 0
DWIDTH 9 0
BBX 15 20 -3 -4
BITMAP
0000
0000
0000
0000
0000
0000
0DE0
0DE0
0730
0E60
0C00
0C00
1800
1800
1800
3000
0000
0000
0000
0000
ENDCHAR
STARTCHAR U+0071
ENCODING 113
SWIDTH 1000 0
DWIDTH 9 0
BBX 15 20 -3 -4
BITMAP
0000
0000
0000
0000
0000
0000
07F0
07F0
0C70
18E0
18E0
18E0
1FC0
1FC0
00C0
0180
0180
0180
0300
0300
ENDCHAR
STARTCHAR U+0070
ENCODING 112
SWIDTH 1000 0
DWIDTH 9 0
BBX 15 20 -3 -4
BITMAP
0000
0000
0000
0000
0000
0000
0FE0
0FE0
0E30
1C60
1C60
1C60
3F80
3F80
3000
6000
6000
6000
C000
C000
ENDCHAR
STARTCHAR U+006f
ENCODING 111
SWIDTH 1000 0
DWIDTH 9 0
BBX 15 20 -3 -4
BITMAP
0000
0000
0000
0000
0000
0000
07E0
07E0
0C30
1860
1860
1860
30C0
30C0
1F80
3F00
0000
0000
0000
0000
ENDCHAR
STARTCHAR U+006e
ENCODING 110
SWIDTH 1000 0
DWIDTH 9 0
BBX 15 20 -3 -4
BITMAP
0000
0000
0000
0000
0000
0000
0FE0
0FE0
0E30
1C60
1860
1860
30C0
30C0
30C0
6180
0000
0000
0000
0000
ENDCHAR
STARTCHAR U+006d
ENCODING 109
SWIDTH 1000 0
DWIDTH 9 0
BBX 15 20 -3 -4
BITMAP
0000
0000
0000
0000
0000
0000
0E60
0E60
0FF0
1FE0
1B60
1B60
36C0
36C0
30C0
6180
0000
0000
0000
0000
ENDCHAR
STARTCHAR U+006c
ENCODING 108
SWIDTH 1000 0
DWIDTH 9 0
BBX 15 20 -3 -4
BITMAP
0000
0000
00E0
01C0
00C0
00C0
0180
0180
0180
0300
0300
0300
0600
0600
0F00
1E00
0000
0000
0000
0000
ENDCHAR
STARTCHAR U+006b
ENCODING 107
SWIDTH 1000 0
DWIDTH 9 0
BBX 15 20 -3 -4
BITMAP
0000
0000
0300
0600
0600
0600
0CC0
0CC0
0D80
1B00
1E00
1E00
3300
3300
3140
6180
0000
0000
0000
0000
ENDCHAR
STARTCHAR U+006a
ENCODING 106
SWIDTH 1000 0
DWIDTH 9 0
BBX 15 20 -3 -4
BITMAP
0000
0000
0018
0030
0000
0000
0060
0060
0060
00C0
00C0
00C0
0180
0180
3180
6300
6300
6300
7C00
7C00
ENDCHAR
STARTCHAR U+0069
ENCODING 105
SWIDTH 1000 0
DWIDTH 9 0
BBX 15 20 -3 -4
BITMAP
0000
0000
0060
00C0
0000
0000
0380
0380
0180
0300
0300
0300
0600
0600
1F80
3F00
0000
0000
0000
0000
ENDCHAR
STARTCHAR U+0068
ENCODING 104
SWIDTH 1000 0
DWIDTH 9 0
BBX 15 20 -3 -4
BITMAP
0000
0000
0300
0600
0600
0600
0FE0
0FE0
0E30
1C60
1860
1860
30C0
30C0
30C0
6180
0000
0000
0000
0000
ENDCHAR
STARTCHAR U+0067
ENCODING 103
SWIDTH 1000 0
DWIDTH 9 0
BBX 15 20 -3 -4
BITMAP
0000
0000
0000
0000
0000
0000
07F0
07F0
0C60
18C0
0F80
0F80
3000
3000
1F80
3F00
6180
6180
7E00
7E00
ENDCHAR
STARTCHAR U+0066
ENCODING 102
SWIDTH 1000 0
DWIDTH 9 0
BBX 15 20 -3 -4
BITMAP
0000
0000
0078
00F0
0198
0198
0300
0300
0FC0
1F80
0600
0600
0C00
0C00
0C00
1800
0000
0000
0000
0000
ENDCHAR
STARTCHAR U+0065
ENCODING 101
SWIDTH 1000 0
DWIDTH 9 0
BBX 15 20 -3 -4
BITMAP
0000
0000
0000
0000
0000
0000
07E0
07E0
0C30
1860
1FE0
1FE0
3000
3000
1F80
3F00
0000
0000
0000
0000
ENDCHAR
STARTCHAR U+0064
ENCODING 100
SWIDTH 1000 0
DWIDTH 9 0
BBX 15 20 -3 -4
BITMAP
0000
0000
000C
0018
0018
0018
07F0
07F0
0C70
18E0
1860
1860
31C0
31C0
1FC0
3F80
0000
0000
0000
0000
ENDCHAR
STARTCHAR U+0063
ENCODING 99
SWIDTH 1000 0
DWIDTH 9 0
BBX 15 20 -3 -4
BITMAP
0000
0000
0000
0000
0000
0000
07E0
07E0
0C30
1860
1800
1800
3000
3000
1FC0
3F80
0000
0000
0000
0000
ENDCHAR
STARTCHAR U+0062
ENCODING 98
SWIDTH 1000 0
DWIDTH 9 0
BBX 15 20 -3 -4
BITMAP
0000
0000
0300
0600
0600
0600
0FE0
0FE0
0E30
1C60
1860
1860
38C0
38C0
3F80
7F00
0000
0000
0000
0000
ENDCHAR
STARTCHAR U+0061
ENCODING 97
SWIDTH 1000 0
DWIDTH 9 0
BBX 15 20 -3 -4
BITMAP
0000
0000
0000
0000
0000
0000
07E0
07E0
0030
0060
0FE0
0FE0
31C0
31C0
1FC0
3F80
0000
0000
0000
0000
ENDCHAR
STARTCHAR U+0060
ENCODING 96
SWIDTH 1000 0
DWIDTH 9 0
BBX 15 20 -3 -4
BITMAP
0000
0000
00E0
01C0
00C0
00C0
00C0
00C0
0000
0000
0000
0000
0000
0000
0000
0000
0000
0000
0000
0000
ENDCHAR
STARTCHAR U+005F
ENCODING 95
SWIDTH 1000 0
DWIDTH 9 0
BBX 15 20 -3 -4
BITMAP
0000
0000
0000
0000
0000
0000
0000
0000
0000
0000
0000
0000
0000
0000
3FC0
7F80
0000
0000
0000
0000
ENDCHAR
STARTCHAR U+005E
ENCODING 94
SWIDTH 1000 0
DWIDTH 9 0
BBX 15 20 -3 -4
BITMAP
0000
0000
0060
00C0
01E0
01E0
0660
0660
0C30
1860
0000
0000
0000
0000
0000
0000
0000
0000
0000
0000
ENDCHAR
STARTCHAR U+005D
ENCODING 93
SWIDTH 1000 0
DWIDTH 9 0
BBX 15 20 -3 -4
BITMAP
0000
0000
01F0
03E0
0060
0060
00C0
00C0
00C0
0180
0180
0180
0300
0300
1F00
3E00
0000
0000
0000
0000
ENDCHAR
STARTCHAR U+005C
ENCODING 92
SWIDTH 1000 0
DWIDTH 9 0
BBX 15 20 -3 -4
BITMAP
0000
0000
0300
0600
0300
0300
0300
0300
0180
0300
0180
0180
0180
0180
00C0
0180
0000
0000
0000
0000
ENDCHAR
STARTCHAR U+005B
ENCODING 91
SWIDTH 1000 0
DWIDTH 9 0
BBX 15 20 -3 -4
BITMAP
0000
0000
00F8
01F0
0180
0180
0300
0300
0300
0600
0600
0600
0C00
0C00
0F80
1F00
0000
0000
0000
0000
ENDCHAR
STARTCHAR U+005A
ENCODING 90
SWIDTH 1000 0
DWIDTH 9 0
BBX 15 20 -3 -4
BITMAP
0000
0000
03FC
07F8
0030
0030
00C0
00C0
0180
0300
0600
0600
1800
1800
3FC0
7F80
0000
0000
0000
0000
ENDCHAR
STARTCHAR U+0059
ENCODING 89
SWIDTH 1000 0
DWIDTH 9 0
BBX 15 20 -3 -4
BITMAP
0000
0000
030C
0618
0330
0330
03C0
03C0
0180
0300
0300
0300
0600
0600
0600
0C00
0000
0000
0000
0000
ENDCHAR
STARTCHAR U+0058
ENCODING 88
SWIDTH 1000 0
DWIDTH 9 0
BBX 15 20 -3 -4
BITMAP
0000
0000
030C
0618
0330
0330
03C0
03C0
0180
0300
0780
0780
1980
1980
30C0
6180
0000
0000
0000
0000
ENDCHAR
STARTCHAR U+0057
ENCODING 87
SWIDTH 1000 0
DWIDTH 9 0
BBX 15 20 -3 -4
BITMAP
0000
0000
030C
0618
0618
0618
0C30
0C30
0DB0
1B60
1B60
1B60
3FC0
3FC0
1980
3300
0000
0000
0000
0000
ENDCHAR
STARTCHAR U+0056
ENCODING 86
SWIDTH 1000 0
DWIDTH 9 0
BBX 15 20 -3 -4
BITMAP
0000
0000
030C
0618
0618
0618
0660
0660
0660
0CC0
0780
0780
0F00
0F00
0600
0C00
0000
0000
0000
0000
ENDCHAR
STARTCHAR U+0055
ENCODING 85
SWIDTH 1000 0
DWIDTH 9 0
BBX 15 20 -3 -4
BITMAP
0000
0000
030C
0618
0618
0618
0C30
0C30
0C30
1860
1860
1860
30C0
30C0
1F80
3F00
0000
0000
0000
0000
ENDCHAR
STARTCHAR U+0054
ENCODING 84
SWIDTH 1000 0
DWIDTH 9 0
BBX 15 20 -3 -4
BITMAP
0000
0000
03FC
07F8
00C0
00C0
0180
0180
0180
0300
0300
0300
0600
0600
0600
0C00
0000
0000
0000
0000
ENDCHAR
STARTCHAR U+0053
ENCODING 83
SWIDTH 1000 0
DWIDTH 9 0
BBX 15 20 -3 -4
BITMAP
0000
0000
01F8
03F0
0618
0618
0C00
0C00
07E0
0FC0
0060
0060
30C0
30C0
1F80
3F00
0000
0000
0000
0000
ENDCHAR
STARTCHAR U+0052
ENCODING 82
SWIDTH 1000 0
DWIDTH 9 0
BBX 15 20 -3 -4
BITMAP
0000
0000
03F8
07F0
0618
0618
0C30
0C30
0FE0
1FC0
1980
1980
3180
3180
30C0
6180
0000
0000
0000
0000
ENDCHAR
STARTCHAR U+0051
ENCODING 81
SWIDTH 1000 0
DWIDTH 9 0
BBX 15 20 -3 -4
BITMAP
0000
0000
01F8
03F0
0618
0618
0C30
0C30
0C30
1860
19E0
19E0
3180
3180
1FC0
3F80
0000
0000
0000
0000
ENDCHAR
STARTCHAR U+0050
ENCODING 80
SWIDTH 1000 0
DWIDTH 9 0
BBX 15 20 -3 -4
BITMAP
0000
0000
03F8
07F0
0618
0618
0C30
0C30
0FE0
1FC0
1800
1800
3000
3000
3000
6000
0000
0000
0000
0000
ENDCHAR
STARTCHAR U+004F
ENCODING 79
SWIDTH 1000 0
DWIDTH 9 0
BBX 15 20 -3 -4
BITMAP
0000
0000
01F8
03F0
0618
0618
0C30
0C30
0C30
1860
1860
1860
30C0
30C0
1F80
3F00
0000
0000
0000
0000
ENDCHAR
STARTCHAR U+004E
ENCODING 78
SWIDTH 1000 0
DWIDTH 9 0
BBX 15 20 -3 -4
BITMAP
0000
0000
030C
0618
0718
0718
0F30
0F30
0DB0
1B60
19E0
19E0
31C0
31C0
30C0
6180
0000
0000
0000
0000
ENDCHAR
STARTCHAR U+004D
ENCODING 77
SWIDTH 1000 0
DWIDTH 9 0
BBX 15 20 -3 -4
BITMAP
0000
0000
030C
0618
0738
0738
0FF0
0FF0
0DB0
1B60
1860
1860
30C0
30C0
30C0
6180
0000
0000
0000
0000
ENDCHAR
STARTCHAR U+004C
ENCODING 76
SWIDTH 1000 0
DWIDTH 9 0
BBX 15 20 -3 -4
BITMAP
0000
0000
0300
0600
0600
0600
0C00
0C00
0C00
1800
1800
1800
3000
3000
3FC0
7F80
0000
0000
0000
0000
ENDCHAR
STARTCHAR U+004B
ENCODING 75
SWIDTH 1000 0
DWIDTH 9 0
BBX 15 20 -3 -4
BITMAP
0000
0000
030C
0618
0670
0670
0F80
0F80
0E00
1C00
1F00
1F00
3380
3380
30C0
6180
0000
0000
0000
0000
ENDCHAR
STARTCHAR U+004A
ENCODING 74
SWIDTH 1000 0
DWIDTH 9 0
BBX 15 20 -3 -4
BITMAP
0000
0000
003C
0078
0030
0030
0060
0060
0060
00C0
00C0
00C0
3180
3180
1F00
3E00
0000
0000
0000
0000
ENDCHAR
STARTCHAR U+0049
ENCODING 73
SWIDTH 1000 0
DWIDTH 9 0
BBX 15 20 -3 -4
BITMAP
0000
0000
01F8
03F0
00C0
00C0
0180
0180
0180
0300
0300
0300
0600
0600
1F80
3F00
0000
0000
0000
0000
ENDCHAR
STARTCHAR U+0048
ENCODING 72
SWIDTH 1000 0
DWIDTH 9 0
BBX 15 20 -3 -4
BITMAP
0000
0000
030C
0618
0618
0618
0C30
0C30
0FF0
1FE0
1860
1860
30C0
30C0
30C0
6180
0000
0000
0000
0000
ENDCHAR
STARTCHAR U+0047
ENCODING 71
SWIDTH 1000 0
DWIDTH 9 0
BBX 15 20 -3 -4
BITMAP
0000
0000
00F8
01F0
0318
0318
0C00
0C00
0C00
1800
19E0
19E0
18C0
18C0
0F80
1F00
0000
0000
0000
0000
ENDCHAR
STARTCHAR U+0046
ENCODING 70
SWIDTH 1000 0
DWIDTH 9 0
BBX 15 20 -3 -4
BITMAP
0000
0000
03FC
07F8
0600
0600
0C00
0C00
0FC0
1F80
1800
1800
3000
3000
3000
6000
0000
0000
0000
0000
ENDCHAR
STARTCHAR U+0045
ENCODING 69
SWIDTH 1000 0
DWIDTH 9 0
BBX 15 20 -3 -4
BITMAP
0000
0000
03FC
07F8
0600
0600
0C00
0C00
0FC0
1F80
1800
1800
3000
3000
3FC0
7F80
0000
0000
0000
0000
ENDCHAR
STARTCHAR U+0044
ENCODING 68
SWIDTH 1000 0
DWIDTH 9 0
BBX 15 20 -3 -4
BITMAP
0000
0000
03F0
07E0
0330
0330
0630
0630
0630
0C60
0C60
0C60
1980
1980
3F00
7E00
0000
0000
0000
0000
ENDCHAR
STARTCHAR U+0043
ENCODING 67
SWIDTH 1000 0
DWIDTH 9 0
BBX 15 20 -3 -4
BITMAP
0000
0000
00F8
01F0
0318
0318
0C00
0C00
0C00
1800
1800
1800
18C0
18C0
0F80
1F00
0000
0000
0000
0000
ENDCHAR
STARTCHAR U+0042
ENCODING 66
SWIDTH 1000 0
DWIDTH 9 0
BBX 15 20 -3 -4
BITMAP
0000
0000
03F8
07F0
0318
0318
0630
0630
07E0
0FC0
0C60
0C60
18C0
18C0
3F80
7F00
0000
0000
0000
0000
ENDCHAR
STARTCHAR U+0041
ENCODING 65
SWIDTH 1000 0
DWIDTH 9 0
BBX 15 20 -3 -4
BITMAP
0000
0000
0060
00C0
01E0
01E0
0660
0660
0C30
1860
1FE0
1FE0
30C0
30C0
30C0
6180
0000
0000
0000
0000
ENDCHAR
STARTCHAR U+0040
ENCODING 64
SWIDTH 1000 0
DWIDTH 9 0
BBX 15 20 -3 -4
BITMAP
0000
0000
01F8
03F0
0618
0618
0DF0
0DF0
0F70
1EE0
1BE0
1BE0
3000
3000
1F80
3F00
0000
0000
0000
0000
ENDCHAR
STARTCHAR U+003F
ENCODING 63
SWIDTH 1000 0
DWIDTH 9 0
BBX 15 20 -3 -4
BITMAP
0000
0000
01F8
03F0
0618
0618
00E0
00E0
0180
0300
0300
0300
0000
0000
0600
0C00
0000
0000
0000
0000
ENDCHAR
STARTCHAR U+003E
ENCODING 62
SWIDTH 1000 0
DWIDTH 9 0
BBX 15 20 -3 -4
BITMAP
0000
0000
0300
0500
0180
0180
00C0
00C0
0050
0060
0180
0380
0C00
0C00
3000
6000
0000
0000
0000
0000
ENDCHAR
STARTCHAR U+003D
ENCODING 61
SWIDTH 1000 0
DWIDTH 9 0
BBX 15 20 -3 -4
BITMAP
0000
0000
0000
0000
0000
0000
0FF0
0FF0
0000
0000
1FE0
1FE0
0000
0000
0000
0000
0000
0000
0000
0000
ENDCHAR
STARTCHAR U+003C
ENCODING 60
SWIDTH 1000 0
DWIDTH 9 0
BBX 15 20 -3 -4
BITMAP
0000
0000
0014
0018
0060
00E0
0300
0300
0C00
1400
0600
0600
0300
0300
0140
0180
0000
0000
0000
0000
ENDCHAR
STARTCHAR U+003B
ENCODING 59
SWIDTH 1000 0
DWIDTH 9 0
BBX 15 20 -3 -4
BITMAP
0000
0000
0000
0000
01C0
01C0
0380
0380
0000
0000
0000
0000
0E00
0E00
0C00
1800
3000
3000
0000
0000
ENDCHAR
STARTCHAR U+003A
ENCODING 58
SWIDTH 1000 0
DWIDTH 9 0
BBX 15 20 -3 -4
BITMAP
0000
0000
0000
0000
01C0
01C0
0380
0380
0000
0000
0000
0000
0E00
0E00
0E00
1C00
0000
0000
0000
0000
ENDCHAR
STARTCHAR U+0039
ENCODING 57
SWIDTH 1000 0
DWIDTH 9 0
BBX 15 20 -3 -4
BITMAP
0000
0000
01F8
03F0
0618
0618
0C70
0C70
07F0
0FE0
0060
0060
0180
0180
1F00
3E00
0000
0000
0000
0000
ENDCHAR
STARTCHAR U+0038
ENCODING 56
SWIDTH 1000 0
DWIDTH 9 0
BBX 15 20 -3 -4
BITMAP
0000
0000
01F8
03F0
0618
0618
0C30
0C30
07E0
0FC0
1860
1860
30C0
30C0
1F80
3F00
0000
0000
0000
0000
ENDCHAR
STARTCHAR U+0037
ENCODING 55
SWIDTH 1000 0
DWIDTH 9 0
BBX 15 20 -3 -4
BITMAP
0000
0000
03FC
07F8
0018
0018
0060
0060
00C0
0180
0300
0300
0C00
0C00
0C00
1800
0000
0000
0000
0000
ENDCHAR
STARTCHAR U+0036
ENCODING 54
SWIDTH 1000 0
DWIDTH 9 0
BBX 15 20 -3 -4
BITMAP
0000
0000
00F8
01F0
0300
0300
0C00
0C00
0FE0
1FC0
1C60
1C60
30C0
30C0
1F80
3F00
0000
0000
0000
0000
ENDCHAR
STARTCHAR U+0035
ENCODING 53
SWIDTH 1000 0
DWIDTH 9 0
BBX 15 20 -3 -4
BITMAP
0000
0000
03FC
07F8
0600
0600
0FE0
0FE0
0E30
1C60
0060
0060
30C0
30C0
1F80
3F00
0000
0000
0000
0000
ENDCHAR
STARTCHAR U+0034
ENCODING 52
SWIDTH 1000 0
DWIDTH 9 0
BBX 15 20 -3 -4
BITMAP
0000
0000
0030
0060
00E0
00E0
03C0
03C0
06C0
0D80
1FE0
1FE0
0300
0300
0300
0600
0000
0000
0000
0000
ENDCHAR
STARTCHAR U+0033
ENCODING 51
SWIDTH 1000 0
DWIDTH 9 0
BBX 15 20 -3 -4
BITMAP
0000
0000
03FC
07F8
0030
0030
00C0
00C0
01E0
03C0
0060
0060
30C0
30C0
1F80
3F00
0000
0000
0000
0000
ENDCHAR
STARTCHAR U+0032
ENCODING 50
SWIDTH 1000 0
DWIDTH 9 0
BBX 15 20 -3 -4
BITMAP
0000
0000
01F8
03F0
0618
0618
0030
0030
01E0
03C0
0E00
0E00
3000
3000
3FC0
7F80
0000
0000
0000
0000
ENDCHAR
STARTCHAR U+0031
ENCODING 49
SWIDTH 1000 0
DWIDTH 9 0
BBX 15 20 -3 -4
BITMAP
0000
0000
0060
00C0
01C0
01C0
0780
0780
0180
0300
0300
0300
0600
0600
1F80
3F00
0000
0000
0000
0000
ENDCHAR
STARTCHAR U+0030
ENCODING 48
SWIDTH 1000 0
DWIDTH 9 0
BBX 15 20 -3 -4
BITMAP
0000
0000
00F0
01E0
0330
0330
0C30
0C30
0C30
1860
1860
1860
1980
1980
0F00
1E00
0000
0000
0000
0000
ENDCHAR
STARTCHAR U+002F
ENCODING 47
SWIDTH 1000 0
DWIDTH 9 0
BBX 15 20 -3 -4
BITMAP
0000
0000
000C
0018
0030
0030
00C0
00C0
0180
0300
0600
0600
1800
1800
3000
6000
0000
0000
0000
0000
ENDCHAR
STARTCHAR U+002E
ENCODING 46
SWIDTH 1000 0
DWIDTH 9 0
BBX 15 20 -3 -4
BITMAP
0000
0000
0000
0000
0000
0000
0000
0000
0000
0000
0000
0000
0E00
0E00
0E00
1C00
0000
0000
0000
0000
ENDCHAR
STARTCHAR U+002D
ENCODING 45
SWIDTH 1000 0
DWIDTH 9 0
BBX 15 20 -3 -4
BITMAP
0000
0000
0000
0000
0000
0000
0000
0000
0FF0
1FE0
0000
0000
0000
0000
0000
0000
0000
0000
0000
0000
ENDCHAR
STARTCHAR U+002C
ENCODING 44
SWIDTH 1000 0
DWIDTH 9 0
BBX 15 20 -3 -4
BITMAP
0000
0000
0000
0000
0000
0000
0000
0000
0000
0000
0000
0000
0E00
0E00
0C00
1800
3000
3000
0000
0000
ENDCHAR
STARTCHAR U+002B
ENCODING 43
SWIDTH 1000 0
DWIDTH 9 0
BBX 15 20 -3 -4
BITMAP
0000
0000
0000
0000
00C0
00C0
0180
0180
0FF0
1FE0
0300
0300
0600
0600
0000
0000
0000
0000
0000
0000
ENDCHAR
STARTCHAR U+002A
ENCODING 42
SWIDTH 1000 0
DWIDTH 9 0
BBX 15 20 -3 -4
BITMAP
0000
0000
0000
0000
0330
0330
03C0
03C0
0FF0
1FE0
0780
0780
1980
1980
0000
0000
0000
0000
0000
0000
ENDCHAR
STARTCHAR U+0029
ENCODING 41
SWIDTH 1000 0
DWIDTH 9 0
BBX 15 20 -3 -4
BITMAP
0000
0000
00C0
0180
00C0
00C0
00C0
00C0
00C0
0180
0180
0180
0600
0600
0C00
1800
0000
0000
0000
0000
ENDCHAR
STARTCHAR U+0028
ENCODING 40
SWIDTH 1000 0
DWIDTH 9 0
BBX 15 20 -3 -4
BITMAP
0000
0000
0030
0060
00C0
00C0
0300
0300
0300
0600
0600
0600
0600
0600
0300
0600
0000
0000
0000
0000
ENDCHAR
STARTCHAR U+0027
ENCODING 39
SWIDTH 1000 0
DWIDTH 9 0
BBX 15 20 -3 -4
BITMAP
0000
0000
0070
00E0
00C0
00C0
0300
0300
0000
0000
0000
0000
0000
0000
0000
0000
0000
0000
0000
0000
ENDCHAR
STARTCHAR U+0026
ENCODING 38
SWIDTH 1000 0
DWIDTH 9 0
BBX 15 20 -3 -4
BITMAP
0000
0000
01E0
03C0
0660
0660
0CC0
0CC0
0780
0F00
19E0
19E0
3180
3180
1FC0
3F80
0000
0000
0000
0000
ENDCHAR
STARTCHAR U+0025
ENCODING 37
SWIDTH 1000 0
DWIDTH 9 0
BBX 15 20 -3 -4
BITMAP
0000
0000
018C
0318
07B0
07B0
06C0
06C0
0380
0280
06C0
06C0
1BC0
1BC0
3180
6300
0000
0000
0000
0000
ENDCHAR
STARTCHAR U+0024
ENCODING 36
SWIDTH 1000 0
DWIDTH 9 0
BBX 15 20 -3 -4
BITMAP
0000
0000
0060
00C0
03F0
03F0
0D80
0D80
07E0
0FC0
0360
0360
1F80
1F80
0600
0C00
0000
0000
0000
0000
ENDCHAR
STARTCHAR U+0023
ENCODING 35
SWIDTH 1000 0
DWIDTH 9 0
BBX 15 20 -3 -4
BITMAP
0000
0000
01B0
0360
0360
0360
0FE0
0FE0
06C0
0D80
1FC0
1FC0
1B00
1B00
1B00
3600
0000
0000
0000
0000
ENDCHAR
STARTCHAR U+0022
ENCODING 34
SWIDTH 1000 0
DWIDTH 9 0
BBX 15 20 -3 -4
BITMAP
0000
0000
01B0
0360
0360
0360
06C0
06C0
0000
0000
0000
0000
0000
0000
0000
0000
0000
0000
0000
0000
ENDCHAR
STARTCHAR U+0021
ENCODING 33
SWIDTH 1000 0
DWIDTH 9 0
BBX 15 20 -3 -4
BITMAP
0000
0000
0060
00C0
00C0
00C0
0180
0180
0180
0300
0300
0300
0000
0000
0600
0C00
0000
0000
0000
0000
ENDCHAR
STARTCHAR U+2E2E
ENCODING 11822
SWIDTH 1000 0
DWIDTH 9 0
BBX 15 20 -3 -4
BITMAP
0000
0000
01F8
03F0
0618
0618
0700
0700
0180
0300
0300
0300
0000
0000
0600
0C00
0000
0000
0000
0000
ENDCHAR
STARTCHAR U+00b7
ENCODING 183
SWIDTH 1000 0
DWIDTH 9 0
BBX 15 20 -3 -4
BITMAP
0000
0000
0000
0000
0000
0000
0000
0000
0180
0300
0000
0000
0000
0000
0000
0000
0000
0000
0000
0000
ENDCHAR
STARTCHAR U+00A3
ENCODING 163
SWIDTH 1000 0
DWIDTH 9 0
BBX 15 20 -3 -4
BITMAP
0000
0000
0078
00F0
0198
0198
0300
0300
0FC0
1F80
0600
0600
1F00
1F00
3DC0
7B80
3000
3000
0000
0000
ENDCHAR
STARTCHAR U+2260
ENCODING 8800
SWIDTH 1000 0
DWIDTH 9 0
BBX 15 20 -3 -4
BITMAP
0000
0000
000C
0018
0030
0030
0FF0
0FF0
0180
0300
1FE0
1FE0
1800
1800
3000
6000
0000
0000
0000
0000
ENDCHAR
STARTCHAR U+03C0
ENCODING 960
SWIDTH 1000 0
DWIDTH 9 0
BBX 15 20 -3 -4
BITMAP
0000
0000
0000
0000
0000
0000
0FF0
0FF0
0360
06C0
06C0
06C0
0D80
0D80
1980
3300
0000
0000
0000
0000
ENDCHAR
STARTCHAR U+2265
ENCODING 8805
SWIDTH 1000 0
DWIDTH 9 0
BBX 15 20 -3 -4
BITMAP
0000
0000
0300
0500
0180
0180
00C0
00C0
0050
0060
0180
0380
0C00
0C00
3000
6000
7F80
7F80
0000
0000
ENDCHAR
STARTCHAR U+2264
ENCODING 8804
SWIDTH 1000 0
DWIDTH 9 0
BBX 15 20 -3 -4
BITMAP
0000
0000
0014
0018
0060
00E0
0300
0300
0C00
1400
0600
0600
0300
0300
0140
0180
7F80
7F80
0000
0000
ENDCHAR
STARTCHAR U+2502
ENCODING 9474
SWIDTH 1000 0
DWIDTH 9 0
BBX 15 20 -3 -4
BITMAP
0060
0060
0060
00C0
00C0
00C0
0180
0180
0180
0300
0300
0300
0600
0600
0600
0C00
0C00
0C00
1800
1800
ENDCHAR
STARTCHAR U+252C
ENCODING 9516
SWIDTH 1000 0
DWIDTH 9 0
BBX 15 20 -3 -4
BITMAP
0000
0000
0000
0000
0000
0000
0000
0000
0FF8
1FF0
0300
0300
0600
0600
0600
0C00
0C00
0C00
1800
1800
ENDCHAR
STARTCHAR U+2534
ENCODING 9524
SWIDTH 1000 0
DWIDTH 9 0
BBX 15 20 -3 -4
BITMAP
0060
0060
0060
00C0
00C0
00C0
0180
0180
0FF8
1FF0
0000
0000
0000
0000
0000
0000
0000
0000
0000
0000
ENDCHAR
STARTCHAR U+2524
ENCODING 9508
SWIDTH 1000 0
DWIDTH 9 0
BBX 15 20 -3 -4
BITMAP
0060
0060
0060
00C0
00C0
00C0
0180
0180
0F80
1F00
0300
0300
0600
0600
0600
0C00
0C00
0C00
1800
1800
ENDCHAR
STARTCHAR U+251C
ENCODING 9500
SWIDTH 1000 0
DWIDTH 9 0
BBX 15 20 -3 -4
BITMAP
0060
0060
0060
00C0
00C0
00C0
0180
0180
01F8
03F0
0300
0300
0600
0600
0600
0C00
0C00
0C00
1800
1800
ENDCHAR
STARTCHAR U+23BD
ENCODING 9149
SWIDTH 1000 0
DWIDTH 9 0
BBX 15 20 -3 -4
BITMAP
0000
0000
0000
0000
0000
0000
0000
0000
0000
0000
0000
0000
0000
0000
0000
0000
7FC0
7FC0
0000
0000
ENDCHAR
STARTCHAR U+23BC
ENCODING 9148
SWIDTH 1000 0
DWIDTH 9 0
BBX 15 20 -3 -4
BITMAP
0000
0000
0000
0000
0000
0000
0000
0000
0000
0000
0000
0000
3FE0
3FE0
0000
0000
0000
0000
0000
0000
ENDCHAR
STARTCHAR U+2500
ENCODING 9472
SWIDTH 1000 0
DWIDTH 9 0
BBX 15 20 -3 -4
BITMAP
0000
0000
0000
0000
0000
0000
0000
0000
0FF8
1FF0
0000
0000
0000
0000
0000
0000
0000
0000
0000
0000
ENDCHAR
STARTCHAR U+23BB
ENCODING 9147
SWIDTH 1000 0
DWIDTH 9 0
BBX 15 20 -3 -4
BITMAP
0000
0000
0000
0000
07FC
07FC
0000
0000
0000
0000
0000
0000
0000
0000
0000
0000
0000
0000
0000
0000
ENDCHAR
STARTCHAR U+23BA
ENCODING 9146
SWIDTH 1000 0
DWIDTH 9 0
BBX 15 20 -3 -4
BITMAP
03FE
03FE
0000
0000
0000
0000
0000
0000
0000
0000
0000
0000
0000
0000
0000
0000
0000
0000
0000
0000
ENDCHAR
STARTCHAR U+253C
ENCODING 9532
SWIDTH 1000 0
DWIDTH 9 0
BBX 15 20 -3 -4
BITMAP
0060
0060
0060
00C0
00C0
00C0
0180
0180
0FF8
1FF0
0300
0300
0600
0600
0600
0C00
0C00
0C00
1800
1800
ENDCHAR
STARTCHAR U+2514
ENCODING 9492
SWIDTH 1000 0
DWIDTH 9 0
BBX 15 20 -3 -4
BITMAP
0060
0060
0060
00C0
00C0
00C0
0180
0180
01F8
03F0
0000
0000
0000
0000
0000
0000
0000
0000
0000
0000
ENDCHAR
STARTCHAR U+250C
ENCODING 9484
SWIDTH 1000 0
DWIDTH 9 0
BBX 15 20 -3 -4
BITMAP
0000
0000
0000
0000
0000
0000
0000
0000
01F8
03F0
0300
0300
0600
0600
0600
0C00
0C00
0C00
1800
1800
ENDCHAR
STARTCHAR U+2510
ENCODING 9488
SWIDTH 1000 0
DWIDTH 9 0
BBX 15 20 -3 -4
BITMAP
0000
0000
0000
0000
0000
0000
0000
0000
0F80
1F00
0300
0300
0600
0600
0600
0C00
0C00
0C00
1800
1800
ENDCHAR
STARTCHAR U+2518
ENCODING 9496
SWIDTH 1000 0
DWIDTH 9 0
BBX 15 20 -3 -4
BITMAP
0060
0060
0060
00C0
00C0
00C0
0180
0180
0F80
1F00
0000
0000
0000
0000
0000
0000
0000
0000
0000
0000
ENDCHAR
STARTCHAR U+240B
ENCODING 9227
SWIDTH 1000 0
DWIDTH 9 0
BBX 15 20 -3 -4
BITMAP
0000
0000
0330
0660
0660
0660
0780
0780
0780
0F00
07E0
07E0
0300
0300
0300
0600
0600
0600
0C00
0C00
ENDCHAR
STARTCHAR U+2424
ENCODING 9252
SWIDTH 1000 0
DWIDTH 9 0
BBX 15 20 -3 -4
BITMAP
0000
0000
0330
0660
0760
0760
0FC0
0FC0
0DC0
1B80
1B80
1B80
0600
0600
0600
0C00
0C00
0C00
1F00
1F00
ENDCHAR
STARTCHAR U+00B1
ENCODING 177
SWIDTH 1000 0
DWIDTH 9 0
BBX 15 20 -3 -4
BITMAP
0000
0000
0000
0000
00C0
00C0
0180
0180
0FF0
1FE0
0300
0300
0600
0600
3FC0
7F80
0000
0000
0000
0000
ENDCHAR
STARTCHAR U+00B0
ENCODING 176
SWIDTH 1000 0
DWIDTH 9 0
BBX 15 20 -3 -4
BITMAP
0000
0000
00F0
01E0
0330
0330
03C0
03C0
0000
0000
0000
0000
0000
0000
0000
0000
0000
0000
0000
0000
ENDCHAR
STARTCHAR U+240A
ENCODING 9226
SWIDTH 1000 0
DWIDTH 9 0
BBX 15 20 -3 -4
BITMAP
0000
0000
0300
0600
0600
0600
0C00
0C00
0C00
1800
1FE0
1FE0
0600
0600
0780
0F00
0C00
0C00
1800
1800
ENDCHAR
STARTCHAR U+240D
ENCODING 9229
SWIDTH 1000 0
DWIDTH 9 0
BBX 15 20 -3 -4
BITMAP
0000
0000
01E0
03C0
0600
0600
0C00
0C00
0C00
1800
0FC0
0FC0
06C0
06C0
0780
0F00
0D80
0D80
1B00
1B00
ENDCHAR
STARTCHAR U+240C
ENCODING 9228
SWIDTH 1000 0
DWIDTH 9 0
BBX 15 20 -3 -4
BITMAP
0000
0000
03E0
07C0
0600
0600
0F00
0F00
0C00
1800
1BE0
1BE0
0600
0600
0780
0F00
0C00
0C00
1800
1800
ENDCHAR
STARTCHAR U+2409
ENCODING 9225
SWIDTH 1000 0
DWIDTH 9 0
BBX 15 20 -3 -4
BITMAP
0000
0000
0360
06C0
06C0
06C0
0F80
0F80
0D80
1B00
1FE0
1FE0
0300
0300
0300
0600
0600
0600
0C00
0C00
ENDCHAR
STARTCHAR U+2592
ENCODING 9618
SWIDTH 1000 0
DWIDTH 9 0
BBX 15 20 -3 -4
BITMAP
0000
0000
03AC
06B8
0330
0370
0DB0
0DB0
06E0
0AC0
1B60
1F60
1980
1980
3AC0
6D80
0000
0000
0000
0000
ENDCHAR
STARTCHAR U+25C6
ENCODING 9670
SWIDTH 1000 0
DWIDTH 9 0
BBX 15 20 -3 -4
BITMAP
0000
0000
0060
00C0
01E0
01E0
07E0
07E0
0FF0
1FE0
0FC0
0FC0
0F00
0F00
0600
0C00
0000
0000
0000
0000
ENDCHAR
STARTCHAR U+0020
ENCODING 32
SWIDTH 1000 0
DWIDTH 9 0
BBX 15 20 -3 -4
BITMAP
0000
0000
0000
0000
0000
0000
0000
0000
0000
0000
0000
0000
0000
0000
0000
0000
0000
0000
0000
0000
ENDCHAR
ENDFONT
